<?xml version="1.0" standalone="no"?>
<!DOCTYPE svg PUBLIC "-//W3C//DTD SVG 20010904//EN"
 "http://www.w3.org/TR/2001/REC-SVG-20010904/DTD/svg10.dtd">
<svg version="1.0" xmlns="http://www.w3.org/2000/svg"
 width="222.000000pt" height="222.000000pt" viewBox="0 0 222.000000 222.000000"
 preserveAspectRatio="xMidYMid meet">
<metadata>
Created by potrace 1.11, written by Peter Selinger 2001-2013
</metadata>
<g transform="translate(0.000000,222.000000) scale(0.100000,-0.100000)"
fill="#000000" stroke="none">
<path d="M1071 2197 c-13 -6 -55 -61 -93 -122 -84 -132 -194 -261 -389 -455
-183 -183 -442 -397 -534 -441 -37 -18 -54 -68 -33 -97 8 -11 50 -46 93 -77
195 -139 409 -336 670 -615 75 -80 197 -236 220 -281 25 -47 74 -89 105 -89
23 0 37 13 86 78 254 340 605 684 924 907 44 31 85 66 91 76 21 40 -8 77 -132
170 -313 233 -564 462 -694 634 -46 61 -96 123 -112 140 -39 41 -113 137 -113
146 0 7 -52 39 -62 39 -2 0 -14 -6 -27 -13z m132 -305 c54 -31 303 -249 405
-354 92 -94 212 -238 280 -336 46 -67 48 -112 7 -174 -127 -193 -337 -420
-540 -582 -201 -160 -211 -164 -303 -121 -79 37 -162 102 -306 240 -23 22 -80
76 -127 121 -96 92 -161 165 -245 279 -32 44 -65 85 -72 90 -19 15 -22 66 -5
98 7 15 35 52 61 81 26 29 73 86 104 127 68 88 157 180 293 306 159 146 278
242 310 251 39 11 94 0 138 -26z"/>
<path d="M1067 1855 c-28 -14 -132 -94 -192 -146 -234 -204 -420 -403 -490
-522 -24 -42 -27 -55 -22 -99 9 -72 47 -119 332 -403 240 -240 357 -335 411
-335 97 0 353 220 626 538 81 95 149 178 149 185 3 28 -6 47 -66 132 -92 131
-242 302 -401 453 -185 178 -282 233 -347 197z m107 -331 c31 -88 56 -166 56
-171 0 -6 -16 -10 -35 -8 -40 2 -36 25 -36 -202 l0 -143 -55 0 -55 0 5 33 c5
38 19 215 20 272 1 39 0 40 -34 40 -42 1 -41 -3 -6 130 48 175 69 237 77 223
4 -7 32 -85 63 -174z m-253 -271 l52 -37 -68 -23 c-76 -25 -115 -55 -115 -87
1 -49 81 -102 173 -114 162 -21 384 4 451 51 56 39 66 55 54 89 -12 35 -53 56
-107 54 -32 -1 -38 3 -53 33 -10 19 -18 38 -18 42 0 11 60 -1 185 -38 19 -6
19 -6 1 -12 -15 -6 -12 -11 23 -34 55 -36 63 -55 44 -95 -30 -62 -123 -115
-228 -128 -190 -24 -337 -20 -470 13 -33 8 -69 17 -80 20 -35 8 -98 57 -118
91 -37 64 -8 102 128 168 50 24 91 44 92 44 2 0 26 -17 54 -37z m240 -375 c0
-24 2 -50 3 -58 2 -8 6 -57 10 -108 3 -51 7 -96 7 -100 5 -34 -2 -37 -77 -37
-75 0 -75 0 -70 25 3 14 9 91 13 173 l6 147 54 0 53 0 1 -42z"/>
<path d="M1526 289 c-53 -42 -63 -104 -27 -163 25 -40 61 -57 101 -49 32 6 80
54 81 81 0 9 2 27 5 40 9 51 -50 112 -109 112 -13 0 -36 -9 -51 -21z m128 -44
c18 -48 -8 -129 -46 -141 -10 -3 -32 -3 -48 1 -26 6 -28 8 -16 21 8 8 13 23
11 34 -6 32 23 24 41 -11 11 -22 19 -28 26 -21 8 8 8 15 -1 26 -10 12 -9 21 3
45 21 39 4 57 -53 59 l-41 2 0 -68 c-1 -55 -3 -63 -12 -48 -29 51 -13 122 31
132 14 3 31 7 36 9 16 4 62 -23 69 -40z m-44 -24 c0 -13 -27 -21 -45 -15 -25
10 -17 24 15 24 17 0 30 -4 30 -9z"/>
</g>
</svg>
